<svg xmlns="http://www.w3.org/2000/svg" viewBox="0 0 396.57 198.71"><defs><style>.cls-1,.cls-2{fill:#fff;}.cls-1{fill-rule:evenodd;}</style></defs><g id="Layer_2" data-name="Layer 2"><g id="Layer_1-2" data-name="Layer 1"><path class="cls-1" d="M148.8,108.1V90.6h8.6a4.44,4.44,0,0,1,4.5,4.6v12.9ZM0,160.6V143.1H27.7a7.45,7.45,0,0,0,7.3-7.5v-10H0v-35c0-8.8,8.8-17.5,17.5-17.5h35v35H70v-70H87.5v63.3c0,4,2.5,6.7,6.5,6.7h11v-35h52.5c13.1,0,21.9,7.8,21.9,21.9v30.6H52.5v17.5c0,8.8-8.8,17.5-17.5,17.5Zm35-70v17.5H17.5V98.2c0-4.3,2.9-7.7,7.2-7.7l10.3.1Zm92.1,17.5a4.65,4.65,0,0,1-4.6-4.6h0V90.6h13.1v17.5Z"/><path class="cls-1" d="M89.2,136.1h8.1a1.82,1.82,0,0,1,1.8,1.9v16.8H90.9a1.82,1.82,0,0,1-1.8-1.9l.1-16.8ZM99,130H83.1v24.5a6.13,6.13,0,0,0,6,6.2H105V136.2A6.13,6.13,0,0,0,99,130Z"/><path class="cls-1" d="M137.3,136.1h8.1a1.82,1.82,0,0,1,1.8,1.9v16.8H139a1.82,1.82,0,0,1-1.8-1.9l.1-16.8Zm9.9-6.1H131.3v24.5a6.13,6.13,0,0,0,6,6.2h15.9V136.2A6.13,6.13,0,0,0,147.2,130Z"/><path class="cls-1" d="M163.6,136.1h8.1a1.82,1.82,0,0,1,1.8,1.9v16.8h-8.2a1.82,1.82,0,0,1-1.8-1.9l.1-16.8Zm9.8-6.1H157.5v24.5a6.13,6.13,0,0,0,6,6.2h15.9V136.2A6.13,6.13,0,0,0,173.4,130Z"/><path class="cls-1" d="M126.9,160.6v-5.9H115.5V130h-6.1v24.5a6.13,6.13,0,0,0,6,6.2l11.5-.1Z"/><path class="cls-1" d="M62.8,148.6v12.1H56.9V130.1h5.9v12.2h10V130.1h5.9v30.6H72.8V150.5a1.88,1.88,0,0,0-1.8-1.9Z"/><path class="cls-2" d="M353.4,104.6c-2.2-27.9-16.1-51-37.6-65-13.1-7.5-29-12.2-46-7.4-5.3,1.5-14,4.1-22,10.1-.6.5-2,.1-1.3-1.1a12,12,0,0,1,2.3-2.2A59,59,0,0,1,279,27.4c1.5-.1,1.4-.9-.1-1.3-.1,0-.1,0-.2-.1a49.07,49.07,0,0,0-5.5-.4h.5c-45.4-.7-82.8,37.5-83.7,85.3s35.4,87.1,80.9,87.8,81.9-37.3,82.8-85.1v-.1C353.7,110.6,353.6,107.6,353.4,104.6Z"/><path class="cls-2" d="M293.6,13.1Z"/><path class="cls-2" d="M396.5,52.5A69,69,0,0,0,329.4,0C316,0,303.7,4,293.7,13.2c-2.4,2.2-3.6,4.1-4,5.5-.2.9,0,1.2.7,1.2a8.8,8.8,0,0,0,2.6-.8c3.7-1.5,16.2-6.7,30.4-6.1,16.5.7,27.8,4.9,41.5,11.6a.9.9,0,0,1-.4,1.7c-.1,0-22.7-11.5-45.4-10.4A71.12,71.12,0,0,0,292,22.6c-1.1.5-1.3.9-1.2,1.4a7.1,7.1,0,0,0,4.2,4.4c6,2.4,26.8,9.2,53,9.2,1.4,0,2.9,0,4.3-.1H354c17,0,29,4.4,40,14.8C394.6,52.9,397,54.8,396.5,52.5Z"/><path class="cls-2" d="M287.9,24c-.1-3.8-4.5-11.7-7-12.6-2.8-.9-8.5,1.8-8.6,3.2-.3,2.5,8.1,7.1,11.5,9.3,2,1.3,2.5,1.8,3.4,1.8C287.7,25.7,287.9,24.9,287.9,24Z"/><path class="cls-2" d="M365,74.9a6,6,0,0,1-.3-.7h0a81.32,81.32,0,0,0-28.9-34.4l-1.5-.3c-4.2-.4-7.1-1-10.8-1.6a8.1,8.1,0,0,0-3.8.3c21.4,14.6,35.1,38,37.4,66.2.2,3,.4,6.1.3,9.2v.1c-.4,24.1-8,43.2-22.5,59.7a3.49,3.49,0,0,0-.6.9c-.2.3.1.6,1,.2s1.8-.8,2.7-1.3c15.1-9.9,25.6-23.4,30.8-40.2v-.1C378.1,106.1,367.1,79.4,365,74.9Z"/></g></g></svg>